<svg xmlns="http://www.w3.org/2000/svg" width="1340" height="258" style="background:#f7f9fc">
  <title>Interceptor_HL — Fuselage Blueprint V1</title>
  <line x1="70" y1="30" x2="70" y2="218" stroke="#eee" stroke-width="0.5"/>
  <line x1="106" y1="30" x2="106" y2="218" stroke="#eee" stroke-width="0.5"/>
  <line x1="142" y1="30" x2="142" y2="218" stroke="#eee" stroke-width="0.5"/>
  <line x1="178" y1="30" x2="178" y2="218" stroke="#eee" stroke-width="0.5"/>
  <line x1="214" y1="30" x2="214" y2="218" stroke="#eee" stroke-width="0.5"/>
  <line x1="250" y1="30" x2="250" y2="218" stroke="#eee" stroke-width="0.5"/>
  <line x1="286" y1="30" x2="286" y2="218" stroke="#eee" stroke-width="0.5"/>
  <line x1="322" y1="30" x2="322" y2="218" stroke="#eee" stroke-width="0.5"/>
  <line x1="358" y1="30" x2="358" y2="218" stroke="#eee" stroke-width="0.5"/>
  <line x1="394" y1="30" x2="394" y2="218" stroke="#eee" stroke-width="0.5"/>
  <line x1="430" y1="30" x2="430" y2="218" stroke="#eee" stroke-width="0.5"/>
  <line x1="466" y1="30" x2="466" y2="218" stroke="#eee" stroke-width="0.5"/>
  <line x1="502" y1="30" x2="502" y2="218" stroke="#eee" stroke-width="0.5"/>
  <line x1="538" y1="30" x2="538" y2="218" stroke="#eee" stroke-width="0.5"/>
  <line x1="574" y1="30" x2="574" y2="218" stroke="#eee" stroke-width="0.5"/>
  <line x1="610" y1="30" x2="610" y2="218" stroke="#eee" stroke-width="0.5"/>
  <line x1="646" y1="30" x2="646" y2="218" stroke="#eee" stroke-width="0.5"/>
  <line x1="682" y1="30" x2="682" y2="218" stroke="#eee" stroke-width="0.5"/>
  <line x1="718" y1="30" x2="718" y2="218" stroke="#eee" stroke-width="0.5"/>
  <line x1="754" y1="30" x2="754" y2="218" stroke="#eee" stroke-width="0.5"/>
  <line x1="790" y1="30" x2="790" y2="218" stroke="#eee" stroke-width="0.5"/>
  <line x1="826" y1="30" x2="826" y2="218" stroke="#eee" stroke-width="0.5"/>
  <line x1="862" y1="30" x2="862" y2="218" stroke="#eee" stroke-width="0.5"/>
  <line x1="898" y1="30" x2="898" y2="218" stroke="#eee" stroke-width="0.5"/>
  <line x1="934" y1="30" x2="934" y2="218" stroke="#eee" stroke-width="0.5"/>
  <line x1="970" y1="30" x2="970" y2="218" stroke="#eee" stroke-width="0.5"/>
  <line x1="1006" y1="30" x2="1006" y2="218" stroke="#eee" stroke-width="0.5"/>
  <line x1="1042" y1="30" x2="1042" y2="218" stroke="#eee" stroke-width="0.5"/>
  <line x1="1078" y1="30" x2="1078" y2="218" stroke="#eee" stroke-width="0.5"/>
  <line x1="1114" y1="30" x2="1114" y2="218" stroke="#eee" stroke-width="0.5"/>
  <line x1="1150" y1="30" x2="1150" y2="218" stroke="#eee" stroke-width="0.5"/>
  <line x1="1186" y1="30" x2="1186" y2="218" stroke="#eee" stroke-width="0.5"/>
  <line x1="1222" y1="30" x2="1222" y2="218" stroke="#eee" stroke-width="0.5"/>
  <line x1="1258" y1="30" x2="1258" y2="218" stroke="#eee" stroke-width="0.5"/>
  <line x1="70" y1="30" x2="1280" y2="30" stroke="#eee" stroke-width="0.5"/>
  <line x1="70" y1="66" x2="1280" y2="66" stroke="#eee" stroke-width="0.5"/>
  <line x1="70" y1="102" x2="1280" y2="102" stroke="#eee" stroke-width="0.5"/>
  <line x1="70" y1="138" x2="1280" y2="138" stroke="#eee" stroke-width="0.5"/>
  <line x1="70" y1="174" x2="1280" y2="174" stroke="#eee" stroke-width="0.5"/>
  <line x1="70" y1="210" x2="1280" y2="210" stroke="#eee" stroke-width="0.5"/>
  <line x1="70" y1="246" x2="1280" y2="246" stroke="#eee" stroke-width="0.5"/>
  <rect x="190" y="616" width="960" height="108" fill="#ddeeff" stroke="#1a3a5c" stroke-width="1.5"/>
  <polygon points="70.0,670.0 76.0,667.3 76.0,672.7 70.0,670.0" fill="#eef5ff" stroke="#1a3a5c" stroke-width="0.8"/>
  <polygon points="76.0,667.3 82.0,664.6 82.0,675.4 76.0,672.7" fill="#eef5ff" stroke="#1a3a5c" stroke-width="0.8"/>
  <polygon points="82.0,664.6 88.0,661.9 88.0,678.1 82.0,675.4" fill="#eef5ff" stroke="#1a3a5c" stroke-width="0.8"/>
  <polygon points="88.0,661.9 94.0,659.2 94.0,680.8 88.0,678.1" fill="#eef5ff" stroke="#1a3a5c" stroke-width="0.8"/>
  <polygon points="94.0,659.2 100.0,656.5 100.0,683.5 94.0,680.8" fill="#eef5ff" stroke="#1a3a5c" stroke-width="0.8"/>
  <polygon points="100.0,656.5 106.0,653.8 106.0,686.2 100.0,683.5" fill="#eef5ff" stroke="#1a3a5c" stroke-width="0.8"/>
  <polygon points="106.0,653.8 112.0,651.1 112.0,688.9 106.0,686.2" fill="#eef5ff" stroke="#1a3a5c" stroke-width="0.8"/>
  <polygon points="112.0,651.1 118.0,648.4 118.0,691.6 112.0,688.9" fill="#eef5ff" stroke="#1a3a5c" stroke-width="0.8"/>
  <polygon points="118.0,648.4 124.0,645.7 124.0,694.3 118.0,691.6" fill="#eef5ff" stroke="#1a3a5c" stroke-width="0.8"/>
  <polygon points="124.0,645.7 130.0,643.0 130.0,697.0 124.0,694.3" fill="#eef5ff" stroke="#1a3a5c" stroke-width="0.8"/>
  <polygon points="130.0,643.0 136.0,640.3 136.0,699.7 130.0,697.0" fill="#eef5ff" stroke="#1a3a5c" stroke-width="0.8"/>
  <polygon points="136.0,640.3 142.0,637.6 142.0,702.4 136.0,699.7" fill="#eef5ff" stroke="#1a3a5c" stroke-width="0.8"/>
  <polygon points="142.0,637.6 148.0,634.9 148.0,705.1 142.0,702.4" fill="#eef5ff" stroke="#1a3a5c" stroke-width="0.8"/>
  <polygon points="148.0,634.9 154.0,632.2 154.0,707.8 148.0,705.1" fill="#eef5ff" stroke="#1a3a5c" stroke-width="0.8"/>
  <polygon points="154.0,632.2 160.0,629.5 160.0,710.5 154.0,707.8" fill="#eef5ff" stroke="#1a3a5c" stroke-width="0.8"/>
  <polygon points="160.0,629.5 166.0,626.8 166.0,713.2 160.0,710.5" fill="#eef5ff" stroke="#1a3a5c" stroke-width="0.8"/>
  <polygon points="166.0,626.8 172.0,624.1 172.0,715.9 166.0,713.2" fill="#eef5ff" stroke="#1a3a5c" stroke-width="0.8"/>
  <polygon points="172.0,624.1 178.0,621.4 178.0,718.6 172.0,715.9" fill="#eef5ff" stroke="#1a3a5c" stroke-width="0.8"/>
  <polygon points="178.0,621.4 184.0,618.7 184.0,721.3 178.0,718.6" fill="#eef5ff" stroke="#1a3a5c" stroke-width="0.8"/>
  <polygon points="184.0,618.7 190.0,616.0 190.0,724.0 184.0,721.3" fill="#eef5ff" stroke="#1a3a5c" stroke-width="0.8"/>
  <line x1="70" y1="596" x2="70" y2="744" stroke="#1a3a5c" stroke-width="0.8" stroke-dasharray="4,2"/>
  <line x1="190" y1="596" x2="190" y2="744" stroke="#1a3a5c" stroke-width="0.8" stroke-dasharray="4,2"/>
  <line x1="280" y1="596" x2="280" y2="744" stroke="#1a3a5c" stroke-width="0.8" stroke-dasharray="4,2"/>
  <line x1="400" y1="596" x2="400" y2="744" stroke="#1a3a5c" stroke-width="0.8" stroke-dasharray="4,2"/>
  <line x1="520" y1="596" x2="520" y2="744" stroke="#1a3a5c" stroke-width="0.8" stroke-dasharray="4,2"/>
  <line x1="610" y1="596" x2="610" y2="744" stroke="#1a3a5c" stroke-width="0.8" stroke-dasharray="4,2"/>
  <line x1="760" y1="596" x2="760" y2="744" stroke="#1a3a5c" stroke-width="0.8" stroke-dasharray="4,2"/>
  <line x1="850" y1="596" x2="850" y2="744" stroke="#1a3a5c" stroke-width="0.8" stroke-dasharray="4,2"/>
  <line x1="940" y1="596" x2="940" y2="744" stroke="#1a3a5c" stroke-width="0.8" stroke-dasharray="4,2"/>
  <line x1="1060" y1="596" x2="1060" y2="744" stroke="#1a3a5c" stroke-width="0.8" stroke-dasharray="4,2"/>
  <line x1="1150" y1="596" x2="1150" y2="744" stroke="#1a3a5c" stroke-width="0.8" stroke-dasharray="4,2"/>
  <rect x="400" y="618" width="120" height="104" fill="#fff3cd" opacity="0.35" rx="2"/>
  <rect x="610" y="618" width="150" height="104" fill="#d4edda" opacity="0.35" rx="2"/>
  <rect x="850" y="618" width="90" height="104" fill="#f8d7da" opacity="0.35" rx="2"/>
  <ellipse cx="1060" cy="670" rx="7" ry="54" fill="none" stroke="#c0392b" stroke-width="2"/>
  <circle cx="70" cy="670" r="4" fill="#c0392b"/>
  <ellipse cx="670" cy="784" rx="54" ry="54" fill="#ddeeff" stroke="#1a3a5c" stroke-width="1.5"/>
  <line x1="616" y1="784" x2="724" y2="784" stroke="#1a3a5c" stroke-width="0.8"/>
  <line x1="670" y1="730" x2="670" y2="838" stroke="#1a3a5c" stroke-width="0.8"/>
  <line x1="70" y1="796" x2="1150" y2="796" stroke="#333" stroke-width="1"/>
  <line x1="70" y1="791" x2="70" y2="801" stroke="#333" stroke-width="1"/>
  <line x1="1150" y1="791" x2="1150" y2="801" stroke="#333" stroke-width="1"/>
  <rect x="70" y="4" width="1210" height="24" fill="#1a3a5c" rx="4"/>
  <text x="70" y="592" text-anchor="middle" font-family="monospace" font-size="9" fill="#1a3a5c">STA 000</text>
  <text x="70" y="758" text-anchor="middle" font-family="monospace" font-size="8" fill="#666">Nose tip</text>
  <text x="190" y="592" text-anchor="middle" font-family="monospace" font-size="9" fill="#1a3a5c">STA 040</text>
  <text x="190" y="758" text-anchor="middle" font-family="monospace" font-size="8" fill="#666">Nose shoulder</text>
  <text x="280" y="592" text-anchor="middle" font-family="monospace" font-size="9" fill="#1a3a5c">STA 070</text>
  <text x="280" y="758" text-anchor="middle" font-family="monospace" font-size="8" fill="#666">Canopy LE</text>
  <text x="400" y="592" text-anchor="middle" font-family="monospace" font-size="9" fill="#1a3a5c">STA 110</text>
  <text x="400" y="758" text-anchor="middle" font-family="monospace" font-size="8" fill="#666">FC bay FWD</text>
  <text x="520" y="592" text-anchor="middle" font-family="monospace" font-size="9" fill="#1a3a5c">STA 150</text>
  <text x="520" y="758" text-anchor="middle" font-family="monospace" font-size="8" fill="#666">FC bay AFT</text>
  <text x="610" y="592" text-anchor="middle" font-family="monospace" font-size="9" fill="#1a3a5c">STA 180</text>
  <text x="610" y="758" text-anchor="middle" font-family="monospace" font-size="8" fill="#666">Batt bay FWD</text>
  <text x="760" y="592" text-anchor="middle" font-family="monospace" font-size="9" fill="#1a3a5c">STA 230</text>
  <text x="760" y="758" text-anchor="middle" font-family="monospace" font-size="8" fill="#666">Batt bay AFT</text>
  <text x="850" y="592" text-anchor="middle" font-family="monospace" font-size="9" fill="#1a3a5c">STA 260</text>
  <text x="850" y="758" text-anchor="middle" font-family="monospace" font-size="8" fill="#666">ESC bay FWD</text>
  <text x="940" y="592" text-anchor="middle" font-family="monospace" font-size="9" fill="#1a3a5c">STA 290</text>
  <text x="940" y="758" text-anchor="middle" font-family="monospace" font-size="8" fill="#666">ESC bay AFT</text>
  <text x="1060" y="592" text-anchor="middle" font-family="monospace" font-size="9" fill="#1a3a5c">STA 330</text>
  <text x="1060" y="758" text-anchor="middle" font-family="monospace" font-size="8" fill="#666">Motor mount</text>
  <text x="1150" y="592" text-anchor="middle" font-family="monospace" font-size="9" fill="#1a3a5c">STA 360</text>
  <text x="1150" y="758" text-anchor="middle" font-family="monospace" font-size="8" fill="#666">Tail face</text>
  <text x="1060" y="606" text-anchor="middle" font-family="monospace" font-size="9" fill="#c0392b">motor mount Ø14mm</text>
  <text x="670" y="854" text-anchor="middle" font-family="monospace" font-size="9" fill="#1a3a5c">x-section Ø36mm</text>
  <text x="610" y="788" text-anchor="middle" font-family="monospace" font-size="11" fill="#333" font-weight="bold">L = 360mm</text>
  <text x="70" y="602" font-family="monospace" font-size="9" fill="#555">Nose half-angle: 24.23°</text>
  <text x="670" y="21" text-anchor="middle" font-family="monospace" font-size="12" fill="white" font-weight="bold">INTERCEPTOR_HL — Fuselage Blueprint V1  |  L=360mm  Ø=36mm  Nose=conical</text>
</svg>